<svg id="svg" version="1.1" xmlns="http://www.w3.org/2000/svg" xmlns:xlink="http://www.w3.org/1999/xlink" width="400" height="400" viewBox="0, 0, 400,400"><g id="svgg"><path id="path0" d="M151.660 34.375 C 151.584 34.499,149.253 34.570,145.313 34.570 C 141.372 34.570,139.041 34.642,138.965 34.766 C 138.898 34.873,138.344 34.961,137.733 34.962 C 135.384 34.963,127.428 35.804,126.660 36.131 C 126.445 36.223,125.614 36.351,124.813 36.416 C 124.012 36.481,123.304 36.619,123.240 36.723 C 123.175 36.827,122.864 36.923,122.548 36.936 C 122.231 36.950,121.797 37.033,121.582 37.122 C 121.222 37.270,118.454 38.011,117.432 38.232 C 117.190 38.284,116.992 38.404,116.992 38.499 C 116.992 38.594,116.772 38.672,116.504 38.672 C 116.235 38.672,116.016 38.770,116.016 38.890 C 116.016 39.012,115.843 39.063,115.625 39.006 C 115.410 38.950,115.234 38.983,115.234 39.081 C 115.234 39.178,115.052 39.258,114.830 39.258 C 114.607 39.258,114.293 39.390,114.130 39.553 C 113.968 39.715,113.756 39.798,113.659 39.738 C 113.561 39.678,113.371 39.722,113.235 39.837 C 113.099 39.951,112.241 40.425,111.328 40.889 C 109.284 41.929,108.331 42.447,108.203 42.589 C 108.149 42.648,107.710 42.900,107.227 43.148 C 106.745 43.396,106.074 43.830,105.737 44.114 C 104.796 44.904,103.874 45.597,103.651 45.682 C 103.540 45.724,103.210 45.987,102.919 46.268 C 100.671 48.428,98.560 50.284,98.402 50.239 C 98.298 50.210,98.269 50.276,98.337 50.385 C 98.404 50.495,98.037 51.015,97.521 51.541 C 96.408 52.674,95.411 53.821,94.319 55.225 C 93.880 55.789,93.441 56.250,93.343 56.250 C 93.244 56.250,93.164 56.345,93.164 56.460 C 93.164 56.576,92.769 57.184,92.285 57.812 C 91.802 58.441,91.406 59.040,91.406 59.144 C 91.406 59.248,91.274 59.384,91.113 59.446 C 90.952 59.507,90.820 59.693,90.820 59.857 C 90.820 60.022,90.732 60.156,90.625 60.156 C 90.518 60.156,90.430 60.288,90.430 60.449 C 90.430 60.610,90.348 60.742,90.248 60.742 C 90.147 60.742,90.009 60.919,89.941 61.136 C 89.872 61.352,89.720 61.470,89.604 61.398 C 89.484 61.324,89.449 61.358,89.522 61.478 C 89.594 61.593,89.519 61.820,89.357 61.982 C 89.195 62.144,89.062 62.371,89.063 62.486 C 89.063 62.601,88.975 62.695,88.867 62.695 C 88.760 62.695,88.672 62.783,88.672 62.890 C 88.672 62.997,88.232 63.700,87.695 64.453 C 87.158 65.206,86.719 65.944,86.719 66.093 C 86.719 66.243,86.501 66.572,86.234 66.825 C 85.967 67.078,85.747 67.352,85.746 67.433 C 85.744 67.515,85.275 68.306,84.704 69.191 C 84.133 70.076,83.638 70.889,83.605 70.996 C 83.572 71.104,83.380 71.401,83.179 71.657 C 82.977 71.913,82.813 72.246,82.813 72.396 C 82.813 72.546,82.681 72.719,82.520 72.781 C 82.358 72.843,82.227 73.060,82.227 73.263 C 82.227 73.466,82.147 73.633,82.050 73.633 C 81.953 73.633,81.774 73.875,81.651 74.170 C 81.288 75.047,79.753 77.540,79.644 77.431 C 79.589 77.375,79.494 77.575,79.434 77.874 C 79.373 78.173,79.164 78.594,78.968 78.809 C 78.773 79.023,78.460 79.507,78.273 79.883 C 77.919 80.593,77.512 81.277,77.344 81.445 C 77.178 81.611,76.558 82.676,76.151 83.496 C 75.937 83.926,75.592 84.541,75.384 84.863 C 75.175 85.186,74.937 85.581,74.854 85.742 C 74.771 85.903,74.415 86.519,74.062 87.109 C 73.709 87.700,73.336 88.337,73.233 88.525 C 73.131 88.713,72.958 89.021,72.850 89.209 C 72.742 89.397,72.594 89.683,72.521 89.844 C 72.448 90.005,72.030 90.708,71.592 91.406 C 71.154 92.104,70.672 92.917,70.521 93.213 C 70.370 93.508,70.183 93.750,70.105 93.750 C 70.028 93.750,69.906 93.981,69.835 94.263 C 69.765 94.546,69.403 95.250,69.033 95.830 C 68.662 96.409,68.359 96.952,68.359 97.037 C 68.359 97.122,68.204 97.362,68.015 97.571 C 67.826 97.779,67.506 98.320,67.304 98.774 C 67.102 99.230,66.848 99.543,66.736 99.474 C 66.614 99.399,66.583 99.476,66.658 99.670 C 66.731 99.859,66.657 100.059,66.478 100.159 C 66.312 100.252,66.198 100.364,66.226 100.408 C 66.319 100.559,65.581 101.953,65.407 101.953 C 65.312 101.953,65.234 102.065,65.234 102.202 C 65.234 102.338,64.936 102.904,64.570 103.458 C 64.205 104.013,63.944 104.504,63.989 104.549 C 64.035 104.595,63.938 104.743,63.774 104.879 C 63.611 105.015,63.477 105.241,63.477 105.381 C 63.477 105.521,63.367 105.753,63.232 105.896 C 63.098 106.039,62.725 106.664,62.402 107.286 C 62.080 107.908,61.685 108.567,61.523 108.750 C 61.362 108.933,60.887 109.764,60.466 110.596 C 60.046 111.429,59.623 112.109,59.527 112.109 C 59.431 112.109,59.398 112.184,59.454 112.275 C 59.511 112.366,59.405 112.608,59.220 112.812 C 59.034 113.016,58.664 113.623,58.396 114.160 C 58.129 114.697,57.800 115.207,57.666 115.293 C 57.532 115.379,57.422 115.621,57.422 115.830 C 57.422 116.040,57.334 116.211,57.227 116.211 C 57.119 116.211,57.053 116.321,57.080 116.455 C 57.107 116.589,57.022 116.678,56.892 116.653 C 56.755 116.626,56.702 116.729,56.766 116.897 C 56.828 117.057,56.780 117.188,56.662 117.188 C 56.543 117.188,56.445 117.358,56.445 117.567 C 56.445 117.775,56.363 117.997,56.262 118.059 C 56.053 118.188,54.792 120.330,54.788 120.564 C 54.786 120.648,54.685 120.780,54.563 120.857 C 54.441 120.933,54.201 121.304,54.030 121.680 C 53.859 122.056,53.632 122.495,53.526 122.656 C 52.692 123.923,51.563 125.914,51.563 126.118 C 51.563 126.255,51.476 126.367,51.371 126.367 C 51.266 126.367,51.124 126.587,51.057 126.855 C 50.989 127.124,50.851 127.344,50.749 127.344 C 50.646 127.344,50.614 127.426,50.676 127.527 C 50.738 127.628,50.678 127.782,50.541 127.869 C 50.405 127.956,50.119 128.379,49.905 128.809 C 49.692 129.238,49.231 130.047,48.880 130.606 C 48.529 131.165,48.242 131.719,48.242 131.838 C 48.242 131.957,48.154 132.000,48.047 131.934 C 47.937 131.865,47.852 132.025,47.852 132.299 C 47.852 132.566,47.738 132.901,47.599 133.043 C 47.460 133.185,47.006 133.916,46.590 134.668 C 46.174 135.420,45.760 136.064,45.671 136.100 C 45.581 136.136,45.508 136.334,45.508 136.540 C 45.508 136.746,45.434 136.914,45.344 136.914 C 45.255 136.914,44.936 137.397,44.638 137.988 C 44.339 138.579,44.017 139.062,43.922 139.063 C 43.827 139.063,43.750 139.202,43.750 139.372 C 43.750 139.542,43.311 140.395,42.773 141.268 C 42.236 142.141,41.797 142.968,41.797 143.107 C 41.797 143.246,41.709 143.359,41.602 143.359 C 41.494 143.359,41.406 143.491,41.406 143.652 C 41.406 143.813,41.318 143.945,41.211 143.945 C 41.104 143.945,41.016 144.037,41.016 144.150 C 41.016 144.262,40.599 145.075,40.089 145.956 C 39.580 146.838,39.159 147.646,39.153 147.754 C 39.147 147.861,39.037 147.927,38.907 147.900 C 38.778 147.874,38.672 148.042,38.672 148.276 C 38.672 148.509,38.553 148.838,38.407 149.008 C 38.261 149.178,37.800 149.976,37.382 150.781 C 36.963 151.587,36.555 152.275,36.475 152.311 C 36.394 152.347,36.328 152.491,36.328 152.632 C 36.328 152.773,36.184 152.943,36.007 153.011 C 35.831 153.079,35.738 153.186,35.801 153.249 C 35.864 153.312,35.701 153.703,35.438 154.119 C 35.176 154.535,34.961 154.957,34.961 155.058 C 34.961 155.159,34.895 155.270,34.814 155.306 C 34.602 155.400,33.984 156.624,33.984 156.949 C 33.984 157.102,33.907 157.227,33.812 157.227 C 33.717 157.227,33.411 157.710,33.131 158.301 C 32.851 158.892,32.528 159.375,32.413 159.375 C 32.298 159.375,32.253 159.456,32.314 159.555 C 32.376 159.653,32.313 159.851,32.174 159.994 C 32.036 160.137,31.530 161.020,31.050 161.957 C 29.778 164.437,29.762 164.463,29.621 164.322 C 29.550 164.251,29.492 164.427,29.492 164.714 C 29.492 165.000,29.414 165.234,29.318 165.234 C 29.222 165.234,29.094 165.434,29.033 165.678 C 28.971 165.922,28.742 166.313,28.523 166.548 C 28.304 166.784,28.125 167.111,28.125 167.277 C 28.125 167.443,28.047 167.578,27.951 167.578 C 27.856 167.578,27.720 167.886,27.650 168.262 C 27.579 168.638,27.437 168.945,27.335 168.945 C 27.232 168.945,27.148 169.121,27.148 169.336 C 27.148 169.551,27.083 169.727,27.002 169.727 C 26.921 169.728,26.597 170.343,26.281 171.094 C 25.965 171.846,25.636 172.461,25.549 172.461 C 25.462 172.461,25.391 172.637,25.391 172.852 C 25.391 173.066,25.310 173.242,25.211 173.242 C 25.112 173.242,24.973 173.506,24.902 173.828 C 24.832 174.150,24.693 174.414,24.594 174.414 C 24.495 174.414,24.414 174.546,24.414 174.708 C 24.414 174.870,24.194 175.457,23.926 176.014 C 23.657 176.571,23.437 177.142,23.437 177.283 C 23.437 177.424,23.350 177.539,23.242 177.539 C 23.135 177.539,23.047 177.654,23.047 177.795 C 23.047 177.936,22.882 178.398,22.680 178.821 C 22.478 179.244,22.026 180.425,21.675 181.445 C 21.324 182.466,20.962 183.384,20.870 183.486 C 20.778 183.588,20.703 183.918,20.703 184.219 C 20.703 184.520,20.615 184.766,20.508 184.766 C 20.400 184.766,20.313 185.029,20.313 185.352 C 20.313 185.674,20.236 185.938,20.142 185.938 C 20.048 185.937,19.814 186.688,19.622 187.606 C 19.429 188.524,19.198 189.320,19.108 189.375 C 19.019 189.431,18.945 189.866,18.945 190.344 C 18.945 190.821,18.870 191.211,18.778 191.211 C 18.686 191.211,18.549 192.112,18.473 193.213 C 18.398 194.314,18.254 195.298,18.153 195.400 C 17.915 195.640,17.908 204.492,18.145 204.492 C 18.242 204.492,18.385 205.416,18.462 206.546 C 18.539 207.676,18.679 208.648,18.774 208.706 C 18.868 208.764,18.945 209.246,18.945 209.777 C 18.945 210.308,19.019 210.742,19.109 210.742 C 19.199 210.742,19.434 211.450,19.631 212.314 C 19.829 213.179,20.063 213.931,20.151 213.986 C 20.240 214.041,20.313 214.295,20.313 214.551 C 20.313 214.807,20.400 215.070,20.508 215.137 C 20.615 215.203,20.703 215.509,20.703 215.816 C 20.703 216.123,20.769 216.403,20.850 216.439 C 20.930 216.475,21.294 217.383,21.659 218.457 C 22.023 219.531,22.582 220.981,22.902 221.680 C 23.221 222.378,23.698 223.433,23.961 224.023 C 24.224 224.614,24.521 225.250,24.622 225.437 C 24.722 225.623,24.805 225.898,24.805 226.048 C 24.805 226.197,24.937 226.429,25.098 226.563 C 25.259 226.696,25.391 226.963,25.391 227.156 C 25.391 227.349,25.466 227.536,25.558 227.572 C 25.790 227.662,27.734 231.730,27.734 232.125 C 27.734 232.301,27.822 232.391,27.930 232.324 C 28.040 232.256,28.125 232.414,28.125 232.687 C 28.125 232.953,28.200 233.200,28.291 233.236 C 28.550 233.337,29.492 234.918,29.492 235.250 C 29.492 235.413,29.580 235.547,29.688 235.547 C 29.795 235.547,29.883 235.672,29.883 235.826 C 29.883 235.979,30.015 236.238,30.177 236.400 C 30.340 236.562,30.640 237.085,30.845 237.563 C 31.049 238.041,31.444 238.792,31.722 239.232 C 31.999 239.672,32.227 240.165,32.227 240.328 C 32.227 240.491,32.313 240.625,32.419 240.625 C 32.524 240.625,32.843 241.086,33.128 241.650 C 33.412 242.214,33.726 242.728,33.825 242.791 C 33.924 242.855,33.990 242.987,33.972 243.084 C 33.898 243.472,33.994 243.767,34.159 243.665 C 34.255 243.606,34.391 243.787,34.461 244.068 C 34.532 244.349,34.721 244.710,34.882 244.870 C 35.042 245.031,35.141 245.260,35.102 245.378 C 35.062 245.497,35.234 245.799,35.484 246.048 C 35.733 246.298,35.937 246.630,35.937 246.786 C 35.937 246.942,36.025 247.070,36.133 247.070 C 36.240 247.070,36.328 247.195,36.328 247.347 C 36.328 247.499,36.401 247.653,36.490 247.689 C 36.628 247.744,37.378 249.106,38.167 250.731 C 38.283 250.972,38.445 251.170,38.525 251.170 C 38.606 251.171,38.672 251.348,38.672 251.563 C 38.672 251.777,38.760 251.953,38.867 251.953 C 38.975 251.953,39.063 252.085,39.063 252.246 C 39.063 252.407,39.144 252.539,39.245 252.539 C 39.345 252.539,39.489 252.737,39.564 252.979 C 39.639 253.220,39.755 253.462,39.821 253.516 C 39.887 253.569,40.140 253.996,40.382 254.464 C 41.083 255.816,41.494 256.535,41.628 256.641 C 41.697 256.694,41.900 257.046,42.079 257.422 C 42.666 258.653,42.864 258.984,43.015 258.984 C 43.097 258.984,43.164 259.116,43.164 259.277 C 43.164 259.438,43.242 259.570,43.338 259.570 C 43.434 259.570,43.570 259.799,43.640 260.078 C 43.710 260.358,43.921 260.819,44.108 261.104 C 44.733 262.052,44.932 262.400,45.048 262.744 C 45.111 262.932,45.240 263.086,45.335 263.086 C 45.430 263.086,45.508 263.262,45.508 263.477 C 45.508 263.691,45.598 263.867,45.708 263.867 C 45.818 263.867,45.992 264.089,46.095 264.360 C 46.199 264.631,46.585 265.326,46.955 265.904 C 47.325 266.482,47.576 267.008,47.512 267.071 C 47.448 267.135,47.498 267.188,47.624 267.188 C 47.749 267.188,47.852 267.354,47.852 267.557 C 47.852 267.761,47.984 267.978,48.146 268.040 C 48.308 268.102,48.422 268.222,48.398 268.305 C 48.353 268.462,48.796 269.359,49.004 269.531 C 49.069 269.585,49.251 269.893,49.410 270.215 C 49.568 270.537,49.913 271.152,50.175 271.582 C 50.438 272.012,50.634 272.388,50.612 272.419 C 50.590 272.450,50.707 272.610,50.872 272.775 C 51.037 272.940,51.172 273.200,51.172 273.354 C 51.172 273.507,51.243 273.633,51.331 273.633 C 51.418 273.633,51.610 273.940,51.758 274.316 C 51.905 274.692,52.098 275.000,52.185 275.000 C 52.272 275.000,52.344 275.190,52.344 275.423 C 52.344 275.656,52.397 275.793,52.462 275.728 C 52.574 275.617,53.292 276.786,54.055 278.320 C 54.242 278.696,54.460 279.033,54.541 279.069 C 54.622 279.105,54.688 279.259,54.688 279.411 C 54.688 279.563,54.769 279.688,54.870 279.688 C 54.970 279.687,55.113 279.885,55.187 280.127 C 55.262 280.369,55.553 280.918,55.835 281.348 C 56.117 281.777,56.523 282.480,56.738 282.910 C 56.953 283.340,57.201 283.744,57.288 283.809 C 57.376 283.873,57.470 284.078,57.497 284.264 C 57.525 284.450,57.641 284.660,57.755 284.732 C 57.869 284.804,58.158 285.281,58.397 285.791 C 58.636 286.301,58.903 286.719,58.990 286.719 C 59.077 286.719,59.207 286.982,59.277 287.305 C 59.348 287.627,59.468 287.891,59.544 287.891 C 59.620 287.891,59.942 288.396,60.261 289.014 C 60.579 289.631,60.906 290.166,60.986 290.202 C 61.067 290.238,61.133 290.441,61.133 290.653 C 61.133 290.865,61.221 290.984,61.328 290.918 C 61.436 290.852,61.523 290.888,61.523 290.998 C 61.523 291.109,61.963 291.943,62.500 292.852 C 63.037 293.762,63.477 294.599,63.477 294.714 C 63.477 294.828,63.564 294.922,63.672 294.922 C 63.779 294.922,63.867 295.090,63.867 295.296 C 63.867 295.502,63.933 295.700,64.014 295.736 C 64.267 295.848,66.211 299.178,66.211 299.499 C 66.211 299.667,66.299 299.805,66.406 299.805 C 66.514 299.805,66.602 299.929,66.602 300.081 C 66.602 300.234,66.683 300.387,66.782 300.423 C 66.882 300.459,66.991 300.620,67.026 300.781 C 67.061 300.942,67.135 301.118,67.189 301.172 C 67.361 301.341,68.359 302.917,68.359 303.019 C 68.359 303.073,68.648 303.581,69.001 304.147 C 69.354 304.713,69.814 305.505,70.022 305.908 C 70.231 306.311,70.469 306.641,70.552 306.641 C 70.635 306.641,70.703 306.771,70.703 306.930 C 70.703 307.089,71.011 307.700,71.387 308.288 C 71.763 308.875,72.070 309.448,72.070 309.561 C 72.070 309.674,72.149 309.766,72.244 309.766 C 72.340 309.766,72.474 309.985,72.541 310.254 C 72.609 310.522,72.750 310.742,72.855 310.742 C 72.961 310.742,73.047 310.918,73.047 311.133 C 73.047 311.348,73.132 311.523,73.236 311.523 C 73.341 311.523,73.663 312.029,73.953 312.646 C 74.243 313.264,74.553 313.799,74.643 313.835 C 74.732 313.870,74.805 313.973,74.805 314.062 C 74.805 314.151,75.115 314.693,75.494 315.266 C 75.874 315.839,76.235 316.506,76.297 316.748 C 76.359 316.990,76.488 317.187,76.584 317.188 C 76.679 317.188,76.758 317.279,76.758 317.391 C 76.758 317.503,76.934 317.783,77.148 318.014 C 77.363 318.244,77.539 318.587,77.539 318.775 C 77.539 318.964,77.619 319.167,77.716 319.227 C 77.955 319.375,79.191 321.545,79.141 321.729 C 79.120 321.809,79.189 321.875,79.297 321.875 C 79.404 321.875,79.492 322.056,79.492 322.277 C 79.492 322.498,79.559 322.638,79.640 322.588 C 79.722 322.537,79.956 322.840,80.160 323.260 C 80.364 323.680,80.589 324.023,80.659 324.023 C 80.729 324.023,80.907 324.331,81.055 324.707 C 81.202 325.083,81.394 325.391,81.482 325.391 C 81.569 325.391,81.641 325.509,81.641 325.654 C 81.641 325.798,81.815 326.117,82.027 326.363 C 82.240 326.608,82.366 326.885,82.309 326.978 C 82.251 327.072,82.288 327.148,82.391 327.148 C 82.710 327.148,83.511 328.638,83.579 329.357 C 83.587 329.444,83.682 329.461,83.789 329.395 C 83.896 329.328,83.984 329.370,83.984 329.488 C 83.984 329.606,84.292 330.160,84.668 330.718 C 85.044 331.276,85.352 331.804,85.352 331.891 C 85.352 331.977,85.571 332.285,85.840 332.575 C 86.108 332.865,86.328 333.212,86.328 333.348 C 86.328 333.483,86.406 333.594,86.502 333.594 C 86.598 333.594,86.732 333.813,86.799 334.082 C 86.866 334.351,87.008 334.570,87.113 334.570 C 87.218 334.570,87.305 334.686,87.305 334.826 C 87.305 334.967,87.458 335.258,87.646 335.472 C 88.111 336.001,88.465 336.553,88.603 336.963 C 88.666 337.151,88.781 337.305,88.859 337.305 C 88.937 337.305,89.240 337.744,89.532 338.281 C 89.824 338.818,90.131 339.258,90.214 339.258 C 90.296 339.258,90.487 339.500,90.637 339.795 C 90.788 340.090,91.154 340.590,91.452 340.906 C 91.749 341.222,91.992 341.555,91.992 341.647 C 91.992 341.816,92.203 342.105,92.822 342.787 C 93.010 342.995,93.164 343.248,93.164 343.350 C 93.164 343.452,93.274 343.606,93.408 343.691 C 93.678 343.864,94.922 345.424,94.922 345.589 C 94.922 345.646,95.678 346.478,96.602 347.437 C 97.525 348.396,98.294 349.249,98.311 349.331 C 98.350 349.530,99.994 351.170,100.162 351.177 C 100.234 351.180,101.011 351.861,101.889 352.691 C 103.481 354.195,103.938 354.570,104.492 354.825 C 104.653 354.899,105.049 355.205,105.371 355.506 C 105.693 355.807,106.057 356.053,106.180 356.054 C 106.303 356.054,106.454 356.187,106.516 356.348 C 106.578 356.509,106.763 356.641,106.927 356.641 C 107.092 356.641,107.227 356.729,107.227 356.836 C 107.227 356.943,107.351 357.031,107.502 357.031 C 107.654 357.031,108.244 357.338,108.812 357.712 C 109.381 358.087,110.223 358.548,110.684 358.738 C 111.145 358.927,111.522 359.148,111.523 359.229 C 111.523 359.309,111.699 359.375,111.914 359.375 C 112.129 359.375,112.305 359.443,112.305 359.525 C 112.305 359.608,112.964 359.927,113.770 360.235 C 114.575 360.542,115.234 360.864,115.234 360.950 C 115.234 361.036,115.506 361.099,115.839 361.089 C 116.171 361.080,116.504 361.170,116.577 361.289 C 116.651 361.408,117.104 361.566,117.584 361.642 C 118.064 361.717,118.501 361.839,118.555 361.915 C 118.670 362.075,122.597 363.089,123.096 363.087 C 123.284 363.087,123.438 363.174,123.438 363.281 C 123.438 363.389,123.914 363.477,124.495 363.477 C 125.077 363.477,125.583 363.563,125.618 363.668 C 125.654 363.773,126.582 363.918,127.679 363.990 C 128.777 364.062,129.639 364.179,129.594 364.251 C 129.513 364.382,132.895 364.714,137.695 365.045 C 139.146 365.145,143.302 365.287,146.932 365.360 C 150.562 365.433,153.577 365.567,153.633 365.657 C 153.765 365.871,246.626 365.871,246.758 365.656 C 246.814 365.566,249.785 365.435,253.361 365.365 C 261.389 365.207,269.827 364.672,270.801 364.259 C 271.016 364.168,271.982 364.040,272.949 363.976 C 273.916 363.911,274.736 363.772,274.772 363.667 C 274.808 363.562,275.227 363.477,275.703 363.477 C 276.178 363.477,276.720 363.399,276.907 363.304 C 277.093 363.209,278.279 362.892,279.541 362.601 C 280.804 362.309,281.886 361.991,281.946 361.895 C 282.005 361.798,282.264 361.719,282.520 361.719 C 282.775 361.719,283.037 361.635,283.100 361.532 C 283.164 361.429,283.345 361.395,283.502 361.455 C 283.660 361.516,283.789 361.468,283.789 361.349 C 283.789 361.230,284.010 361.133,284.280 361.133 C 284.550 361.133,284.924 361.050,285.110 360.950 C 285.852 360.549,287.683 359.766,287.879 359.766 C 287.993 359.766,288.086 359.678,288.086 359.570 C 288.086 359.463,288.254 359.375,288.460 359.375 C 288.666 359.375,288.864 359.309,288.900 359.229 C 288.936 359.148,289.637 358.748,290.458 358.341 C 291.280 357.933,292.203 357.384,292.509 357.120 C 292.816 356.857,293.132 356.641,293.213 356.641 C 293.293 356.641,293.405 356.642,293.461 356.645 C 293.517 356.647,293.671 356.558,293.803 356.448 C 294.806 355.608,296.086 354.687,296.252 354.687 C 296.362 354.687,296.481 354.621,296.517 354.540 C 296.553 354.458,297.147 353.909,297.837 353.319 C 299.372 352.006,304.100 347.334,304.106 347.124 C 304.108 347.041,304.570 346.472,305.131 345.860 C 305.693 345.248,306.372 344.434,306.641 344.052 C 306.909 343.669,307.414 343.027,307.764 342.625 C 308.113 342.223,308.398 341.785,308.398 341.650 C 308.398 341.516,308.486 341.406,308.594 341.406 C 308.701 341.406,308.789 341.295,308.789 341.160 C 308.789 341.025,309.009 340.677,309.277 340.387 C 309.546 340.098,309.766 339.783,309.766 339.687 C 309.766 339.409,310.467 338.852,310.622 339.007 C 310.699 339.085,310.705 338.998,310.635 338.814 C 310.552 338.600,310.619 338.437,310.820 338.360 C 310.992 338.294,311.133 338.117,311.133 337.967 C 311.133 337.818,311.221 337.695,311.328 337.695 C 311.436 337.695,311.523 337.580,311.523 337.440 C 311.523 337.300,311.963 336.561,312.500 335.799 C 313.037 335.037,313.477 334.316,313.477 334.199 C 313.477 334.081,313.564 333.984,313.672 333.984 C 313.779 333.984,313.867 333.853,313.867 333.691 C 313.867 333.530,313.955 333.398,314.063 333.398 C 314.170 333.398,314.258 333.297,314.258 333.173 C 314.258 333.049,314.478 332.659,314.746 332.307 C 315.015 331.955,315.234 331.603,315.234 331.526 C 315.234 331.448,315.434 331.113,315.678 330.780 C 315.922 330.448,316.248 329.927,316.403 329.622 C 316.559 329.317,316.869 328.870,317.093 328.628 C 317.318 328.386,317.471 328.096,317.433 327.984 C 317.396 327.872,317.501 327.644,317.667 327.478 C 317.833 327.312,317.969 327.082,317.969 326.967 C 317.969 326.852,318.062 326.758,318.176 326.758 C 318.289 326.758,318.336 326.683,318.280 326.592 C 318.224 326.501,318.350 326.241,318.561 326.014 C 318.773 325.788,318.945 325.550,318.945 325.487 C 318.945 325.424,319.253 324.891,319.629 324.303 C 320.005 323.715,320.313 323.143,320.313 323.032 C 320.313 322.920,320.400 322.883,320.508 322.949 C 320.615 323.016,320.703 322.927,320.703 322.753 C 320.703 322.464,322.537 319.175,322.826 318.945 C 323.000 318.807,323.768 317.420,324.150 316.553 C 324.328 316.150,324.548 315.820,324.639 315.820 C 324.730 315.820,324.805 315.695,324.805 315.541 C 324.805 315.388,324.920 315.146,325.061 315.004 C 325.202 314.862,325.443 314.460,325.597 314.111 C 325.751 313.762,325.936 313.477,326.008 313.477 C 326.080 313.477,326.291 313.081,326.475 312.598 C 326.660 312.114,326.887 311.719,326.980 311.719 C 327.072 311.719,327.148 311.587,327.148 311.426 C 327.148 311.265,327.236 311.133,327.344 311.133 C 327.451 311.133,327.539 311.042,327.539 310.932 C 327.539 310.821,327.913 310.117,328.369 309.366 C 329.276 307.877,329.876 306.828,330.735 305.236 C 331.042 304.666,331.394 304.067,331.516 303.906 C 331.761 303.583,332.044 303.104,332.817 301.708 C 333.099 301.196,333.390 300.838,333.462 300.910 C 333.534 300.982,333.594 300.824,333.594 300.558 C 333.594 300.291,333.752 299.903,333.946 299.695 C 334.141 299.487,334.325 299.229,334.357 299.121 C 334.389 299.014,334.739 298.354,335.136 297.656 C 335.533 296.958,335.978 296.145,336.126 295.850 C 336.273 295.554,336.467 295.313,336.556 295.313 C 336.646 295.313,336.719 295.216,336.719 295.098 C 336.719 294.980,337.158 294.137,337.695 293.224 C 338.232 292.311,338.672 291.480,338.672 291.376 C 338.672 291.273,338.760 291.242,338.867 291.309 C 338.975 291.375,339.063 291.248,339.063 291.027 C 339.063 290.806,339.150 290.625,339.258 290.625 C 339.365 290.625,339.433 290.559,339.409 290.479 C 339.341 290.252,340.469 288.281,340.668 288.281 C 340.764 288.281,340.797 288.207,340.741 288.116 C 340.685 288.024,340.811 287.764,341.022 287.538 C 341.234 287.311,341.406 287.001,341.406 286.848 C 341.406 286.696,341.534 286.466,341.689 286.336 C 341.845 286.207,342.071 285.801,342.193 285.434 C 342.314 285.066,342.494 284.766,342.593 284.766 C 342.692 284.766,342.773 284.634,342.773 284.473 C 342.773 284.312,342.867 284.180,342.980 284.180 C 343.094 284.180,343.134 284.094,343.070 283.990 C 343.005 283.885,343.132 283.646,343.351 283.458 C 343.570 283.270,343.750 283.005,343.750 282.869 C 343.750 282.733,344.124 282.024,344.580 281.295 C 345.037 280.565,345.439 279.839,345.475 279.681 C 345.510 279.524,345.658 279.328,345.802 279.247 C 345.946 279.165,346.166 278.792,346.290 278.416 C 346.413 278.041,346.596 277.734,346.695 277.734 C 346.794 277.734,346.875 277.615,346.875 277.469 C 346.875 277.323,347.095 276.879,347.363 276.483 C 347.632 276.088,347.852 275.631,347.852 275.468 C 347.852 275.305,347.923 275.217,348.011 275.271 C 348.099 275.325,348.332 274.979,348.529 274.501 C 348.726 274.024,348.962 273.633,349.053 273.633 C 349.144 273.633,349.219 273.501,349.219 273.340 C 349.219 273.179,349.312 273.047,349.426 273.047 C 349.539 273.047,349.585 272.970,349.527 272.877 C 349.469 272.783,349.596 272.506,349.809 272.261 C 350.021 272.016,350.195 271.697,350.195 271.552 C 350.195 271.407,350.283 271.289,350.391 271.289 C 350.498 271.289,350.586 271.202,350.586 271.097 C 350.586 270.991,350.869 270.444,351.216 269.881 C 351.562 269.318,351.864 268.732,351.886 268.579 C 351.909 268.426,352.005 268.248,352.101 268.184 C 352.196 268.119,352.336 267.935,352.411 267.773 C 352.486 267.612,352.859 266.953,353.239 266.309 C 353.620 265.664,354.033 264.895,354.157 264.600 C 354.281 264.304,354.451 264.063,354.535 264.063 C 354.619 264.063,354.688 263.931,354.688 263.770 C 354.688 263.608,354.755 263.477,354.837 263.477 C 354.919 263.477,355.139 263.147,355.326 262.744 C 355.749 261.833,356.094 261.273,356.348 261.087 C 356.455 261.008,356.473 260.942,356.387 260.940 C 356.301 260.939,356.480 260.564,356.784 260.107 C 357.088 259.651,357.465 259.014,357.623 258.691 C 357.781 258.369,358.020 257.989,358.154 257.847 C 358.289 257.705,358.398 257.464,358.398 257.310 C 358.398 257.157,358.492 257.031,358.605 257.031 C 358.719 257.031,358.757 256.943,358.691 256.835 C 358.624 256.726,358.701 256.587,358.862 256.525 C 359.024 256.463,359.212 256.157,359.280 255.845 C 359.349 255.533,359.478 255.233,359.567 255.178 C 359.787 255.042,361.001 252.902,361.062 252.543 C 361.089 252.383,361.204 252.222,361.317 252.185 C 361.431 252.147,361.523 251.986,361.523 251.828 C 361.523 251.669,361.611 251.594,361.719 251.660 C 361.826 251.727,361.914 251.641,361.914 251.470 C 361.914 251.300,362.266 250.539,362.695 249.781 C 363.125 249.023,363.477 248.323,363.477 248.225 C 363.477 248.127,363.564 248.047,363.672 248.047 C 363.779 248.047,363.867 247.882,363.867 247.680 C 363.867 247.478,363.995 247.208,364.150 247.078 C 364.306 246.949,364.622 246.455,364.851 245.980 C 365.081 245.506,365.354 245.117,365.459 245.117 C 365.563 245.117,365.598 245.036,365.537 244.938 C 365.476 244.839,365.554 244.630,365.711 244.473 C 365.868 244.316,366.054 243.958,366.124 243.677 C 366.195 243.396,366.331 243.215,366.427 243.275 C 366.523 243.334,366.602 243.254,366.602 243.097 C 366.602 242.854,367.547 240.994,368.157 240.039 C 368.259 239.878,368.585 239.263,368.879 238.672 C 369.174 238.081,369.473 237.554,369.545 237.500 C 369.616 237.446,369.736 237.205,369.811 236.963 C 369.886 236.721,370.030 236.523,370.130 236.523 C 370.231 236.523,370.319 236.370,370.327 236.182 C 370.335 235.994,370.509 235.576,370.715 235.254 C 370.921 234.932,371.238 234.382,371.421 234.033 C 371.603 233.684,371.833 233.398,371.932 233.398 C 372.031 233.398,372.062 233.269,372.002 233.111 C 371.941 232.953,372.026 232.689,372.190 232.525 C 372.354 232.361,372.433 232.227,372.365 232.227 C 372.251 232.227,373.016 230.695,373.242 230.469 C 373.296 230.415,373.604 229.800,373.926 229.102 C 374.248 228.403,374.556 227.788,374.609 227.734 C 374.663 227.681,374.736 227.505,374.771 227.344 C 374.805 227.183,374.915 227.021,375.015 226.986 C 375.114 226.950,375.195 226.836,375.195 226.733 C 375.195 226.629,375.500 225.893,375.873 225.097 C 376.246 224.300,376.607 223.425,376.676 223.152 C 376.744 222.880,376.879 222.656,376.974 222.656 C 377.070 222.656,377.148 222.480,377.148 222.266 C 377.148 222.051,377.236 221.875,377.344 221.875 C 377.451 221.875,377.539 221.663,377.539 221.403 C 377.539 221.143,377.609 220.902,377.695 220.866 C 377.781 220.830,378.098 220.054,378.401 219.141 C 378.703 218.228,379.072 217.286,379.221 217.048 C 379.370 216.810,379.492 216.398,379.492 216.132 C 379.492 215.866,379.580 215.594,379.687 215.527 C 379.795 215.461,379.883 215.153,379.883 214.844 C 379.883 214.534,379.957 214.235,380.047 214.179 C 380.137 214.124,380.364 213.481,380.551 212.752 C 380.738 212.022,380.965 211.250,381.056 211.035 C 381.147 210.820,381.222 210.345,381.223 209.980 C 381.225 209.615,381.308 209.263,381.410 209.199 C 381.511 209.135,381.658 208.182,381.736 207.082 C 381.814 205.981,381.956 205.129,382.052 205.189 C 382.153 205.251,382.227 203.107,382.227 200.121 C 382.227 197.274,382.152 194.899,382.060 194.842 C 381.886 194.734,381.579 192.289,381.622 191.357 C 381.636 191.062,381.558 190.820,381.448 190.820 C 381.339 190.820,381.250 190.442,381.250 189.980 C 381.250 189.519,381.173 189.057,381.080 188.955 C 380.986 188.853,380.757 188.132,380.570 187.352 C 380.383 186.572,380.152 185.886,380.057 185.827 C 379.961 185.767,379.883 185.417,379.883 185.047 C 379.883 184.677,379.795 184.375,379.688 184.375 C 379.580 184.375,379.492 184.117,379.492 183.801 C 379.492 183.485,379.411 183.176,379.312 183.115 C 379.213 183.054,378.900 182.280,378.617 181.394 C 378.333 180.509,377.975 179.552,377.820 179.267 C 377.666 178.982,377.539 178.608,377.539 178.437 C 377.539 178.265,377.451 178.125,377.344 178.125 C 377.236 178.125,377.148 177.949,377.148 177.734 C 377.148 177.520,377.061 177.344,376.953 177.344 C 376.846 177.344,376.758 177.217,376.758 177.062 C 376.758 176.908,376.389 176.007,375.937 175.060 C 375.486 174.114,375.135 173.274,375.156 173.193 C 375.178 173.113,375.107 173.047,375.000 173.047 C 374.893 173.047,374.804 172.937,374.804 172.803 C 374.803 172.574,374.303 171.555,372.885 168.896 C 372.556 168.279,372.323 167.773,372.367 167.773 C 372.483 167.773,371.286 165.587,370.969 165.219 C 370.823 165.049,370.703 164.764,370.703 164.584 C 370.703 164.405,370.615 164.258,370.508 164.258 C 370.400 164.258,370.313 164.133,370.313 163.981 C 370.313 163.829,369.923 163.046,369.448 162.242 C 368.972 161.437,368.621 160.741,368.668 160.694 C 368.714 160.648,368.576 160.450,368.361 160.255 C 368.145 160.060,367.969 159.738,367.969 159.540 C 367.969 159.342,367.887 159.180,367.787 159.180 C 367.686 159.180,367.543 158.982,367.468 158.740 C 367.393 158.499,367.167 158.067,366.967 157.782 C 366.766 157.497,366.602 157.164,366.602 157.042 C 366.602 156.920,366.429 156.634,366.218 156.408 C 366.007 156.181,365.880 155.921,365.936 155.830 C 365.993 155.739,365.946 155.664,365.832 155.664 C 365.718 155.664,365.625 155.488,365.625 155.273 C 365.625 155.059,365.537 154.883,365.430 154.883 C 365.322 154.883,365.234 154.751,365.234 154.590 C 365.234 154.429,365.164 154.297,365.078 154.297 C 364.992 154.297,364.809 153.984,364.670 153.601 C 364.532 153.218,364.295 152.857,364.143 152.798 C 363.991 152.740,363.867 152.579,363.867 152.440 C 363.867 152.302,363.506 151.594,363.065 150.868 C 362.624 150.142,362.176 149.298,362.069 148.992 C 361.963 148.687,361.797 148.438,361.700 148.438 C 361.603 148.438,361.523 148.306,361.523 148.145 C 361.523 147.983,361.436 147.852,361.328 147.852 C 361.221 147.852,361.133 147.730,361.133 147.582 C 361.133 147.330,360.044 145.396,359.605 144.866 C 359.496 144.734,359.346 144.386,359.272 144.091 C 359.198 143.796,359.059 143.555,358.963 143.555 C 358.867 143.555,358.789 143.423,358.789 143.262 C 358.789 143.101,358.701 142.969,358.594 142.969 C 358.486 142.969,358.398 142.874,358.398 142.759 C 358.398 142.643,358.027 141.918,357.574 141.147 C 357.120 140.377,356.768 139.680,356.792 139.600 C 356.816 139.519,356.748 139.453,356.641 139.453 C 356.533 139.453,356.445 139.321,356.445 139.160 C 356.445 138.999,356.379 138.866,356.299 138.864 C 356.218 138.862,355.892 138.335,355.573 137.692 C 355.254 137.049,354.925 136.523,354.841 136.523 C 354.756 136.523,354.688 136.443,354.688 136.344 C 354.688 136.246,354.294 135.499,353.813 134.685 C 353.331 133.871,352.883 132.986,352.815 132.717 C 352.748 132.449,352.633 132.266,352.560 132.311 C 352.487 132.357,352.304 132.114,352.154 131.773 C 352.005 131.432,351.514 130.576,351.064 129.871 C 350.613 129.166,350.184 128.397,350.109 128.162 C 350.035 127.927,349.892 127.734,349.792 127.734 C 349.691 127.734,349.609 127.559,349.609 127.344 C 349.609 127.129,349.521 126.953,349.414 126.953 C 349.307 126.953,349.219 126.861,349.219 126.748 C 349.219 126.636,348.928 126.087,348.572 125.528 C 348.216 124.969,347.864 124.380,347.790 124.219 C 347.715 124.058,347.435 123.574,347.167 123.145 C 346.899 122.715,346.503 122.012,346.286 121.582 C 346.069 121.152,345.783 120.630,345.651 120.422 C 344.633 118.817,344.141 117.958,344.141 117.783 C 344.141 117.670,344.043 117.578,343.924 117.578 C 343.806 117.578,343.755 117.456,343.813 117.306 C 343.870 117.156,343.704 116.834,343.444 116.589 C 343.183 116.344,343.004 116.110,343.046 116.069 C 343.124 115.991,341.970 113.956,341.608 113.534 C 341.497 113.404,341.406 113.242,341.406 113.173 C 341.406 113.105,341.233 112.805,341.021 112.508 C 340.810 112.211,340.693 111.912,340.761 111.843 C 340.829 111.775,340.783 111.719,340.658 111.719 C 340.532 111.719,340.430 111.587,340.430 111.426 C 340.430 111.265,340.354 111.133,340.261 111.133 C 340.168 111.133,339.941 110.737,339.756 110.254 C 339.572 109.771,339.362 109.375,339.289 109.375 C 339.217 109.375,339.032 109.089,338.878 108.740 C 338.724 108.391,338.483 107.989,338.342 107.847 C 338.201 107.705,338.086 107.464,338.086 107.310 C 338.086 107.157,338.009 107.031,337.914 107.031 C 337.820 107.031,337.630 106.746,337.492 106.396 C 337.354 106.047,337.085 105.586,336.894 105.371 C 336.703 105.156,336.534 104.917,336.518 104.838 C 336.399 104.251,336.263 103.906,336.152 103.906 C 336.080 103.906,335.761 103.405,335.442 102.793 C 335.124 102.180,334.714 101.509,334.531 101.301 C 334.349 101.094,334.145 100.679,334.080 100.381 C 334.014 100.082,333.821 99.784,333.652 99.719 C 333.482 99.654,333.392 99.551,333.451 99.491 C 333.511 99.431,333.348 99.070,333.089 98.687 C 332.829 98.305,332.617 97.913,332.617 97.816 C 332.617 97.719,332.441 97.451,332.227 97.221 C 332.012 96.990,331.836 96.642,331.836 96.448 C 331.836 96.253,331.747 96.094,331.639 96.094 C 331.530 96.094,331.157 95.501,330.809 94.777 C 330.461 94.053,330.022 93.290,329.834 93.080 C 329.646 92.871,329.492 92.541,329.492 92.346 C 329.492 92.151,329.413 91.992,329.316 91.992 C 329.122 91.992,327.939 90.041,327.656 89.258 C 327.560 88.989,327.413 88.725,327.331 88.670 C 327.248 88.616,326.882 88.044,326.516 87.401 C 325.425 85.480,325.304 85.281,325.049 85.003 C 324.915 84.857,324.805 84.612,324.805 84.459 C 324.805 84.305,324.717 84.180,324.609 84.180 C 324.502 84.180,324.414 84.062,324.414 83.917 C 324.414 83.709,323.118 81.465,321.859 79.492 C 321.756 79.331,321.533 78.895,321.363 78.522 C 321.193 78.150,320.909 77.735,320.732 77.601 C 320.555 77.466,320.474 77.353,320.552 77.350 C 320.630 77.347,320.225 76.616,319.652 75.727 C 319.078 74.838,318.547 73.915,318.471 73.676 C 318.395 73.438,318.251 73.242,318.151 73.242 C 318.051 73.242,317.969 73.110,317.969 72.949 C 317.969 72.788,317.903 72.655,317.822 72.654 C 317.742 72.653,317.502 72.258,317.290 71.775 C 317.078 71.293,316.831 70.898,316.742 70.898 C 316.652 70.898,316.627 70.820,316.687 70.724 C 316.746 70.627,316.663 70.498,316.503 70.437 C 316.342 70.375,316.211 70.195,316.211 70.036 C 316.211 69.877,315.991 69.510,315.723 69.220 C 315.454 68.930,315.234 68.604,315.234 68.496 C 315.234 68.387,315.030 68.027,314.779 67.694 C 314.529 67.362,314.203 66.811,314.054 66.469 C 313.906 66.128,313.715 65.891,313.630 65.944 C 313.546 65.996,313.477 65.935,313.477 65.808 C 313.477 65.681,313.085 65.028,312.605 64.356 C 312.126 63.685,311.789 63.080,311.857 63.013 C 311.924 62.946,311.877 62.891,311.751 62.891 C 311.626 62.891,311.523 62.715,311.523 62.500 C 311.523 62.285,311.458 62.131,311.377 62.158 C 311.296 62.185,311.208 62.141,311.182 62.061 C 311.155 61.980,310.957 61.738,310.742 61.523 C 310.527 61.309,310.352 61.001,310.352 60.840 C 310.352 60.679,310.220 60.547,310.059 60.547 C 309.897 60.547,309.766 60.415,309.766 60.254 C 309.766 60.093,309.678 59.961,309.570 59.961 C 309.463 59.961,309.375 59.846,309.375 59.705 C 309.375 59.564,309.221 59.275,309.033 59.063 C 308.573 58.544,307.813 57.464,307.813 57.330 C 307.813 57.271,307.538 56.938,307.203 56.590 C 306.867 56.242,306.451 55.737,306.278 55.469 C 306.105 55.200,305.808 54.866,305.619 54.725 C 305.429 54.585,305.273 54.396,305.273 54.306 C 305.273 54.216,304.548 53.377,303.662 52.441 C 302.776 51.506,302.018 50.651,301.978 50.541 C 301.873 50.256,300.421 48.828,300.236 48.828 C 299.939 48.828,298.430 47.143,298.580 46.978 C 298.663 46.887,298.628 46.871,298.502 46.943 C 298.376 47.015,297.948 46.767,297.547 46.388 C 297.147 46.012,296.792 45.703,296.758 45.703 C 296.598 45.703,294.531 44.067,294.531 43.940 C 294.531 43.815,294.282 43.709,293.701 43.586 C 293.621 43.569,293.379 43.379,293.164 43.164 C 292.949 42.949,292.649 42.773,292.497 42.773 C 292.345 42.773,292.191 42.700,292.155 42.610 C 292.119 42.521,291.431 42.106,290.625 41.690 C 289.819 41.273,289.116 40.885,289.063 40.827 C 288.834 40.582,286.781 39.648,286.472 39.648 C 286.285 39.648,286.133 39.561,286.133 39.453 C 286.133 39.346,285.935 39.257,285.693 39.257 C 285.452 39.256,285.002 39.124,284.694 38.964 C 284.387 38.803,283.969 38.672,283.767 38.672 C 283.564 38.672,283.398 38.605,283.398 38.524 C 283.398 38.358,282.613 38.102,280.469 37.570 C 279.663 37.371,278.975 37.141,278.939 37.061 C 278.903 36.980,278.493 36.914,278.027 36.914 C 277.562 36.914,277.152 36.827,277.116 36.720 C 277.080 36.614,276.348 36.470,275.488 36.401 C 274.629 36.331,273.838 36.208,273.730 36.126 C 273.360 35.844,265.129 34.963,262.853 34.962 C 262.242 34.961,261.687 34.873,261.621 34.766 C 261.545 34.642,259.178 34.570,255.164 34.570 C 251.070 34.570,248.828 34.501,248.828 34.375 C 248.828 34.245,232.523 34.180,200.304 34.180 C 168.166 34.180,151.740 34.246,151.660 34.375 M162.020 91.226 C 162.837 91.779,164.648 93.653,164.648 93.946 C 164.648 94.038,164.758 94.232,164.893 94.377 C 165.228 94.739,165.821 95.728,165.953 96.143 C 166.012 96.331,166.139 96.484,166.234 96.484 C 166.329 96.484,166.406 96.568,166.406 96.671 C 166.406 96.774,166.660 97.411,166.970 98.087 C 167.828 99.958,168.743 102.101,168.725 102.201 C 168.721 102.226,168.908 102.729,169.141 103.320 C 169.741 104.839,170.838 108.227,171.482 110.547 C 171.586 110.923,171.842 111.846,172.051 112.598 C 172.259 113.350,172.790 115.459,173.230 117.285 C 173.671 119.111,174.120 120.957,174.230 121.387 C 174.340 121.816,174.460 122.388,174.497 122.656 C 174.534 122.925,174.653 123.540,174.761 124.023 C 174.868 124.507,175.102 125.649,175.280 126.563 C 175.458 127.476,175.697 128.574,175.812 129.004 C 175.927 129.434,176.042 129.961,176.068 130.176 C 176.170 131.040,176.414 132.381,176.653 133.398 C 176.791 133.989,177.011 135.132,177.141 135.938 C 177.271 136.743,177.451 137.798,177.541 138.281 C 178.092 141.238,178.579 144.259,179.499 150.440 C 179.706 151.834,179.780 152.165,180.275 153.906 C 180.804 155.768,181.091 156.560,181.404 157.031 C 181.582 157.300,181.737 157.563,181.747 157.617 C 181.812 157.952,182.317 158.789,182.453 158.789 C 182.543 158.789,182.617 158.921,182.617 159.082 C 182.617 159.243,182.793 159.551,183.008 159.766 C 183.223 159.980,183.355 160.156,183.303 160.156 C 183.116 160.156,183.909 161.045,185.693 162.835 C 186.686 163.833,187.631 164.648,187.793 164.648 C 187.954 164.648,188.086 164.726,188.086 164.820 C 188.086 164.982,189.119 165.496,189.348 165.448 C 189.407 165.435,189.762 165.554,190.138 165.710 C 190.513 165.867,190.820 165.954,190.820 165.903 C 190.820 165.852,191.067 165.938,191.369 166.094 C 192.780 166.823,198.828 165.791,198.828 164.821 C 198.828 164.741,199.007 164.618,199.225 164.549 C 199.443 164.480,199.835 164.210,200.095 163.950 C 200.355 163.689,200.622 163.477,200.687 163.477 C 200.753 163.477,201.218 163.055,201.722 162.539 C 203.192 161.032,205.370 159.692,207.520 158.970 C 207.949 158.826,208.406 158.631,208.536 158.537 C 209.237 158.027,212.101 157.943,213.730 158.384 C 218.845 159.768,222.372 163.508,225.761 171.140 C 225.987 171.650,226.172 172.154,226.172 172.262 C 226.172 172.565,227.410 175.285,227.582 175.358 C 227.666 175.394,227.734 175.510,227.734 175.616 C 227.734 175.907,228.254 176.367,228.582 176.367 C 229.127 176.367,229.842 175.213,230.363 173.495 C 230.650 172.550,230.987 171.514,231.114 171.191 C 231.240 170.869,231.351 170.562,231.361 170.508 C 231.371 170.454,231.570 169.985,231.803 169.466 C 232.036 168.947,232.227 168.485,232.227 168.439 C 232.227 167.965,234.777 163.051,235.290 162.535 C 235.431 162.393,235.547 162.201,235.547 162.109 C 235.547 162.017,235.660 161.826,235.797 161.684 C 235.935 161.542,236.261 161.118,236.522 160.742 C 236.783 160.366,237.242 159.826,237.541 159.541 C 237.841 159.256,238.086 158.926,238.086 158.808 C 238.086 158.690,238.162 158.594,238.255 158.594 C 238.348 158.594,238.721 158.325,239.085 157.998 C 242.351 155.052,245.806 154.146,249.316 155.314 C 250.179 155.601,251.622 156.309,251.918 156.591 C 252.060 156.726,252.249 156.836,252.338 156.836 C 252.427 156.836,253.246 157.573,254.159 158.473 C 257.304 161.576,259.500 165.516,261.517 171.680 C 262.887 175.864,264.563 178.320,266.048 178.320 C 267.162 178.320,268.166 176.336,268.163 174.140 C 268.160 172.216,269.062 161.532,269.533 157.910 C 269.630 157.158,269.808 155.708,269.927 154.688 C 270.047 153.667,270.281 152.235,270.447 151.504 C 270.614 150.774,270.705 150.132,270.650 150.077 C 270.595 150.023,270.678 149.490,270.834 148.894 C 270.989 148.297,271.076 147.768,271.026 147.718 C 270.975 147.668,271.022 147.348,271.129 147.007 C 271.236 146.666,271.349 146.120,271.379 145.794 C 271.410 145.468,271.503 144.897,271.587 144.524 C 271.670 144.152,271.760 143.659,271.787 143.428 C 271.814 143.197,271.892 142.832,271.960 142.618 C 272.028 142.404,272.118 141.958,272.160 141.629 C 272.201 141.299,272.325 140.740,272.435 140.388 C 272.640 139.730,273.324 136.776,273.353 136.426 C 273.361 136.318,273.562 135.571,273.798 134.766 C 274.034 133.960,274.327 132.949,274.449 132.520 C 275.930 127.301,277.688 122.939,279.999 118.750 C 283.334 112.705,287.661 110.037,291.699 111.537 C 292.344 111.776,292.915 112.035,292.969 112.111 C 293.022 112.188,293.337 112.389,293.668 112.558 C 294.926 113.203,297.336 115.978,298.705 118.359 C 299.632 119.973,301.953 124.768,301.953 125.070 C 301.953 125.233,302.029 125.414,302.122 125.472 C 302.214 125.529,302.404 125.996,302.543 126.509 C 302.681 127.022,302.853 127.529,302.924 127.637 C 302.994 127.744,303.258 128.491,303.508 129.297 C 303.759 130.103,304.093 131.157,304.250 131.641 C 304.531 132.506,305.150 134.794,305.465 136.133 C 305.554 136.509,305.754 137.300,305.909 137.891 C 306.065 138.481,306.303 139.492,306.439 140.137 C 306.574 140.781,306.754 141.572,306.839 141.895 C 306.923 142.217,307.095 143.052,307.222 143.750 C 307.348 144.448,307.551 145.459,307.672 145.996 C 307.793 146.533,307.873 147.043,307.849 147.129 C 307.825 147.216,307.929 147.760,308.081 148.339 C 308.232 148.918,308.311 149.436,308.257 149.490 C 308.203 149.544,308.272 150.054,308.411 150.624 C 308.550 151.194,308.651 151.836,308.635 152.051 C 308.620 152.266,308.701 152.791,308.816 153.218 C 308.930 153.646,309.020 154.305,309.017 154.683 C 309.013 155.062,309.094 155.694,309.196 156.089 C 309.429 156.985,309.985 162.020,310.346 166.504 C 310.739 171.371,312.237 178.399,313.290 180.320 C 313.393 180.506,313.477 180.749,313.477 180.859 C 313.477 181.267,315.817 186.188,316.063 186.296 C 316.144 186.331,316.211 186.455,316.211 186.570 C 316.211 186.685,316.431 187.068,316.699 187.420 C 316.968 187.772,317.188 188.119,317.188 188.191 C 317.188 188.719,320.832 192.851,322.196 193.871 C 322.610 194.180,323.111 194.579,323.309 194.758 C 323.507 194.936,324.078 195.288,324.578 195.539 C 325.079 195.790,325.620 196.092,325.781 196.210 C 326.873 197.007,330.897 197.843,335.254 198.179 C 336.328 198.262,336.855 198.352,336.426 198.379 C 333.630 198.553,328.229 199.380,327.246 199.784 C 326.514 200.085,323.536 201.610,323.438 201.734 C 323.384 201.802,323.008 202.105,322.603 202.407 C 322.198 202.709,321.670 203.157,321.431 203.403 C 319.912 204.964,318.767 206.243,318.360 206.836 C 318.101 207.212,317.832 207.563,317.761 207.617 C 317.497 207.817,315.828 210.547,315.968 210.550 C 316.048 210.552,316.011 210.618,315.886 210.698 C 315.656 210.844,314.349 213.535,313.635 215.332 C 312.991 216.954,312.329 219.079,311.750 221.387 C 311.643 221.816,311.460 222.530,311.344 222.972 C 311.228 223.414,311.133 224.012,311.133 224.302 C 311.133 224.654,311.057 224.781,310.904 224.687 C 310.753 224.593,310.716 224.650,310.794 224.854 C 310.859 225.023,310.829 225.719,310.727 226.399 C 310.625 227.080,310.452 228.735,310.344 230.078 C 309.971 234.679,309.421 239.806,309.276 240.041 C 309.217 240.136,309.124 240.812,309.069 241.543 C 309.014 242.273,308.877 243.160,308.764 243.514 C 308.651 243.867,308.608 244.286,308.668 244.443 C 308.729 244.601,308.693 244.953,308.590 245.225 C 308.487 245.497,308.359 246.155,308.306 246.687 C 308.253 247.219,308.109 248.053,307.986 248.541 C 307.863 249.030,307.810 249.477,307.868 249.535 C 307.926 249.593,307.840 250.034,307.676 250.514 C 307.512 250.995,307.426 251.437,307.485 251.496 C 307.544 251.554,307.510 251.819,307.410 252.082 C 307.309 252.346,307.188 252.843,307.140 253.185 C 307.092 253.528,306.908 254.424,306.731 255.176 C 306.555 255.928,306.376 256.763,306.335 257.031 C 306.293 257.300,306.120 258.047,305.949 258.691 C 305.778 259.336,305.545 260.215,305.432 260.645 C 305.318 261.074,305.209 261.563,305.190 261.731 C 305.171 261.898,305.063 262.294,304.949 262.610 C 304.748 263.168,304.617 263.602,304.102 265.430 C 303.774 266.591,303.141 268.554,302.935 269.043 C 302.845 269.258,302.508 270.137,302.186 270.996 C 301.405 273.078,301.396 273.100,301.193 273.438 C 301.096 273.599,300.636 274.521,300.171 275.488 C 299.706 276.455,299.280 277.290,299.223 277.344 C 299.167 277.397,299.011 277.639,298.877 277.881 C 298.743 278.123,298.523 278.518,298.389 278.760 C 298.254 279.001,298.057 279.264,297.949 279.343 C 297.842 279.422,297.820 279.488,297.900 279.489 C 297.981 279.491,297.893 279.663,297.705 279.871 C 297.517 280.079,297.102 280.584,296.782 280.994 C 292.111 286.978,286.437 286.932,282.027 280.875 C 281.551 280.222,281.089 279.688,280.999 279.688 C 280.910 279.688,280.891 279.600,280.957 279.492 C 281.023 279.385,280.995 279.297,280.894 279.297 C 280.792 279.297,280.659 279.143,280.598 278.955 C 280.536 278.767,280.220 278.174,279.895 277.637 C 279.128 276.371,277.344 272.700,277.344 272.389 C 277.344 272.257,277.267 272.065,277.172 271.963 C 276.923 271.693,275.501 267.648,274.806 265.234 C 274.667 264.751,274.444 264.004,274.310 263.574 C 274.176 263.145,273.919 262.222,273.739 261.523 C 273.560 260.825,273.310 259.905,273.184 259.479 C 273.059 259.053,272.950 258.613,272.943 258.502 C 272.914 258.062,272.617 256.711,272.447 256.250 C 272.349 255.981,272.227 255.430,272.177 255.024 C 272.128 254.618,272.045 254.218,271.993 254.134 C 271.941 254.051,271.854 253.636,271.798 253.212 C 271.743 252.788,271.614 252.162,271.511 251.821 C 271.409 251.480,271.367 251.159,271.418 251.108 C 271.469 251.057,271.375 250.556,271.208 249.995 C 271.041 249.434,270.944 248.913,270.991 248.837 C 271.037 248.761,270.952 248.230,270.801 247.656 C 270.649 247.083,270.565 246.549,270.614 246.471 C 270.662 246.393,270.577 245.727,270.426 244.991 C 270.145 243.626,269.913 241.977,269.534 238.672 C 269.105 234.921,268.957 233.441,268.761 230.957 C 268.652 229.561,268.472 227.275,268.361 225.879 C 268.251 224.482,268.161 222.900,268.160 222.363 C 268.158 221.516,268.024 220.931,267.456 219.287 C 267.390 219.099,267.260 218.945,267.165 218.945 C 267.070 218.945,266.992 218.819,266.992 218.666 C 266.992 218.306,266.323 218.094,265.692 218.252 C 264.412 218.573,262.655 221.417,261.523 225.000 C 261.166 226.128,260.801 227.134,260.711 227.236 C 260.621 227.338,260.547 227.537,260.547 227.678 C 260.547 228.029,258.683 232.152,258.402 232.422 C 258.347 232.476,258.088 232.915,257.827 233.398 C 257.567 233.882,257.293 234.321,257.220 234.375 C 257.146 234.429,256.945 234.748,256.772 235.085 C 256.349 235.912,253.203 239.355,252.872 239.355 C 252.803 239.355,252.570 239.507,252.354 239.692 C 248.197 243.252,242.041 242.067,237.281 236.792 C 236.360 235.772,233.352 231.141,233.300 230.664 C 233.295 230.610,233.051 230.050,232.758 229.420 C 232.466 228.789,232.227 228.195,232.227 228.099 C 232.227 228.003,232.142 227.772,232.038 227.585 C 231.699 226.977,230.768 224.400,230.256 222.656 C 229.194 219.036,227.920 219.671,225.948 224.805 C 225.175 226.817,223.904 229.464,223.487 229.932 C 223.319 230.120,223.245 230.273,223.324 230.273 C 223.402 230.273,223.349 230.395,223.207 230.542 C 223.065 230.690,222.817 231.011,222.656 231.256 C 220.316 234.804,216.255 238.086,214.206 238.086 C 213.925 238.086,213.641 238.174,213.574 238.281 C 213.339 238.661,209.684 238.512,208.455 238.072 C 204.913 236.805,203.868 236.157,201.068 233.496 C 197.311 229.925,191.013 229.207,187.842 231.987 C 187.654 232.152,187.500 232.216,187.500 232.130 C 187.500 231.691,183.288 236.302,182.617 237.476 C 182.456 237.758,182.236 238.053,182.129 238.132 C 182.021 238.211,182.013 238.277,182.110 238.278 C 182.208 238.280,182.159 238.435,182.003 238.623 C 180.867 239.987,179.938 243.257,179.102 248.828 C 178.823 250.687,178.443 253.022,177.933 256.006 C 177.828 256.624,177.604 257.964,177.435 258.984 C 176.849 262.525,176.768 262.953,176.560 263.581 C 176.446 263.928,176.372 264.288,176.396 264.381 C 176.420 264.475,176.329 265.078,176.193 265.723 C 175.693 268.090,175.613 268.480,175.392 269.629 C 175.268 270.273,175.093 271.108,175.003 271.484 C 174.914 271.860,174.740 272.651,174.618 273.242 C 174.495 273.833,174.315 274.668,174.218 275.098 C 173.743 277.192,173.421 278.568,173.032 280.176 C 172.798 281.143,172.579 282.109,172.546 282.324 C 172.513 282.539,172.397 282.979,172.288 283.301 C 172.179 283.623,171.907 284.546,171.683 285.352 C 170.871 288.278,169.280 293.287,168.968 293.899 C 168.873 294.086,168.707 294.458,168.599 294.727 C 167.572 297.283,165.693 301.319,165.417 301.563 C 165.356 301.616,165.009 302.100,164.645 302.637 C 161.439 307.368,157.002 307.591,154.380 303.153 C 154.181 302.815,153.948 302.539,153.864 302.539 C 153.780 302.539,153.711 302.418,153.711 302.270 C 153.711 302.122,153.592 301.902,153.446 301.781 C 153.213 301.588,151.785 298.829,151.362 297.754 C 149.627 293.354,148.964 291.218,147.539 285.449 C 147.168 283.945,146.765 282.363,146.644 281.934 C 146.524 281.504,146.400 280.977,146.369 280.762 C 146.228 279.783,145.914 278.372,145.732 277.901 C 145.623 277.617,145.571 277.346,145.617 277.299 C 145.664 277.253,145.581 276.782,145.434 276.254 C 145.286 275.725,145.058 274.634,144.926 273.828 C 144.794 273.022,144.608 272.108,144.511 271.797 C 144.415 271.486,144.336 270.968,144.336 270.648 C 144.336 270.327,144.254 269.747,144.153 269.359 C 144.053 268.970,143.872 267.993,143.751 267.188 C 143.629 266.382,143.453 265.239,143.359 264.648 C 143.265 264.058,143.090 262.915,142.969 262.109 C 142.848 261.304,142.671 260.161,142.575 259.570 C 142.385 258.392,142.131 256.514,141.796 253.809 C 141.471 251.188,141.236 249.950,140.804 248.590 C 140.417 247.375,140.327 247.132,139.833 245.996 C 139.693 245.674,139.565 245.366,139.548 245.313 C 137.882 240.032,131.850 233.574,127.344 232.246 C 126.860 232.103,126.289 231.918,126.074 231.834 C 124.459 231.201,120.190 231.238,118.457 231.900 C 118.135 232.023,117.798 232.101,117.709 232.072 C 117.409 231.977,112.109 235.213,111.947 235.591 C 111.911 235.674,111.795 235.742,111.689 235.742 C 111.583 235.742,111.129 235.990,110.680 236.294 C 106.932 238.825,101.947 238.810,98.047 236.256 C 96.373 235.160,92.773 231.088,92.773 230.290 C 92.773 230.174,92.708 230.077,92.627 230.077 C 92.546 230.076,92.389 229.878,92.277 229.637 C 92.165 229.396,91.755 228.584,91.365 227.832 C 90.509 226.180,89.844 224.686,89.844 224.414 C 89.844 224.303,89.763 224.061,89.664 223.874 C 89.253 223.098,88.603 221.073,87.895 218.359 C 87.657 217.446,87.393 216.523,87.309 216.309 C 87.225 216.094,86.954 215.259,86.707 214.453 C 86.460 213.647,86.186 212.905,86.098 212.803 C 86.010 212.701,85.937 212.481,85.936 212.314 C 85.935 211.948,83.866 207.831,83.134 206.738 C 80.755 203.183,79.000 201.548,76.172 200.250 C 75.366 199.880,74.575 199.509,74.413 199.426 C 73.889 199.157,71.417 198.580,70.215 198.447 L 69.043 198.317 70.410 198.168 C 75.139 197.655,80.234 194.590,82.383 190.967 C 82.558 190.671,82.770 190.430,82.855 190.430 C 82.939 190.430,83.008 190.327,83.008 190.201 C 83.008 190.075,83.137 189.829,83.296 189.654 C 83.642 189.271,85.937 184.699,85.938 184.392 C 85.938 184.273,86.104 183.803,86.307 183.347 C 86.888 182.046,86.854 182.151,87.695 179.004 C 87.925 178.145,88.181 177.178,88.265 176.855 C 88.517 175.884,89.693 172.538,90.650 170.068 C 90.765 169.773,90.938 169.531,91.035 169.531 C 91.132 169.531,91.211 169.363,91.211 169.157 C 91.211 168.951,91.277 168.753,91.357 168.717 C 91.438 168.682,91.802 168.081,92.167 167.383 C 92.774 166.221,93.557 164.982,94.325 163.969 C 94.980 163.104,97.798 160.432,98.344 160.157 C 98.664 159.996,98.970 159.815,99.023 159.755 C 99.077 159.695,99.429 159.532,99.805 159.393 C 100.181 159.254,100.664 159.071,100.879 158.986 C 102.911 158.184,106.325 158.307,108.468 159.258 C 108.806 159.408,109.368 159.649,109.717 159.794 C 110.066 159.938,110.352 160.123,110.352 160.204 C 110.352 160.285,110.434 160.352,110.534 160.352 C 110.729 160.352,112.727 161.534,112.891 161.746 C 113.007 161.898,116.051 163.775,116.847 164.186 C 118.743 165.166,123.514 165.567,125.586 164.920 C 126.069 164.769,126.772 164.548,127.148 164.429 C 130.892 163.244,134.364 160.323,137.061 156.089 C 138.255 154.216,140.430 149.748,140.430 149.169 C 140.430 149.032,140.597 148.462,140.802 147.902 C 141.168 146.901,141.383 145.770,141.797 142.676 C 142.031 140.928,142.310 138.961,142.573 137.207 C 142.670 136.563,142.847 135.332,142.966 134.473 C 143.086 133.613,143.267 132.405,143.369 131.787 C 144.351 125.835,145.039 121.995,145.319 120.898 C 145.416 120.522,145.683 119.292,145.913 118.164 C 146.143 117.036,146.401 115.806,146.486 115.430 C 146.906 113.580,147.105 112.735,147.266 112.109 C 147.364 111.733,147.500 111.162,147.569 110.840 C 148.082 108.454,150.645 100.280,150.995 99.912 C 151.092 99.810,151.172 99.606,151.172 99.458 C 151.172 98.735,154.125 93.435,154.907 92.754 C 155.105 92.582,155.209 92.384,155.140 92.314 C 155.070 92.244,155.094 92.187,155.192 92.187 C 155.291 92.187,155.679 91.923,156.055 91.601 C 158.047 89.895,159.881 89.779,162.020 91.226 " stroke="none" fill="#FFFFFF" fill-rule="evenodd"></path></g></svg>