<svg id="svg" version="1.1" xmlns="http://www.w3.org/2000/svg" xmlns:xlink="http://www.w3.org/1999/xlink" width="400" height="400" viewBox="0, 0, 400,400"><g id="svgg"><path id="path0" d="M167.480 48.647 C 140.265 48.877,133.001 49.500,124.378 52.343 C 111.628 56.546,104.255 63.921,91.418 85.314 C 83.929 97.796,52.669 152.004,46.401 163.379 C 29.035 194.896,29.035 205.117,46.402 236.621 C 52.642 247.940,83.485 301.436,91.163 314.258 C 108.563 343.313,117.518 349.396,145.215 350.974 C 156.853 351.637,242.756 351.637,254.395 350.974 C 281.623 349.423,291.057 343.187,307.483 315.886 C 315.199 303.061,348.795 244.794,354.566 234.229 C 370.455 205.136,370.336 194.305,353.796 164.355 C 347.711 153.337,315.953 98.281,308.449 85.742 C 290.902 56.419,281.922 50.448,253.223 49.017 C 243.948 48.555,200.509 48.367,167.480 48.647 M226.563 61.727 C 253.820 62.008,256.385 62.148,264.063 63.779 C 267.440 64.497,267.590 64.542,271.736 66.102 C 276.877 68.036,284.061 73.608,287.891 78.632 C 288.159 78.984,288.915 79.959,289.570 80.798 C 291.042 82.685,295.162 88.858,297.284 92.357 C 297.456 92.640,298.102 93.750,298.720 94.824 C 299.338 95.898,299.958 96.909,300.096 97.070 C 300.234 97.231,300.785 98.154,301.319 99.121 C 301.854 100.088,302.787 101.696,303.393 102.694 C 303.999 103.693,304.726 104.967,305.009 105.526 C 305.292 106.085,305.718 106.807,305.954 107.129 C 306.190 107.451,306.763 108.417,307.227 109.276 C 307.691 110.135,308.568 111.673,309.177 112.694 C 309.786 113.715,310.665 115.254,311.130 116.113 C 311.596 116.973,312.037 117.720,312.112 117.773 C 312.187 117.827,312.628 118.574,313.093 119.434 C 313.557 120.293,314.171 121.348,314.458 121.777 C 314.744 122.207,315.357 123.262,315.820 124.121 C 316.283 124.980,316.912 126.051,317.218 126.500 C 317.523 126.949,317.773 127.362,317.773 127.419 C 317.773 127.475,318.831 129.335,320.123 131.553 C 321.416 133.771,322.651 135.907,322.869 136.299 C 323.087 136.691,323.721 137.810,324.279 138.786 C 324.837 139.762,325.989 141.784,326.839 143.278 C 327.690 144.773,328.667 146.436,329.011 146.973 C 329.355 147.510,329.880 148.433,330.177 149.023 C 330.474 149.614,330.968 150.465,331.276 150.914 C 331.584 151.363,331.836 151.785,331.836 151.852 C 331.836 151.963,333.726 155.357,334.176 156.055 C 334.280 156.216,334.776 157.095,335.278 158.008 C 335.780 158.921,336.469 160.107,336.810 160.645 C 337.151 161.182,337.677 162.104,337.978 162.695 C 338.279 163.286,338.691 164.003,338.892 164.288 C 339.093 164.573,339.258 164.858,339.258 164.921 C 339.258 164.984,340.141 166.622,341.220 168.560 C 343.137 172.006,346.870 179.254,346.873 179.537 C 346.874 179.616,347.227 180.431,347.656 181.348 C 351.062 188.618,352.724 197.956,351.773 204.487 C 351.072 209.298,349.494 214.729,347.656 218.652 C 347.227 219.569,346.874 220.384,346.873 220.463 C 346.870 220.746,343.137 227.994,341.220 231.440 C 340.141 233.378,339.258 235.016,339.258 235.079 C 339.258 235.142,339.093 235.427,338.892 235.712 C 338.691 235.997,338.279 236.714,337.978 237.305 C 337.677 237.896,337.151 238.818,336.810 239.355 C 336.469 239.893,335.780 241.079,335.278 241.992 C 334.776 242.905,334.280 243.784,334.176 243.945 C 333.726 244.643,331.836 248.037,331.836 248.148 C 331.836 248.215,331.584 248.637,331.276 249.086 C 330.968 249.535,330.474 250.386,330.177 250.977 C 329.880 251.567,329.355 252.490,329.011 253.027 C 328.667 253.564,327.690 255.227,326.839 256.722 C 325.989 258.216,324.837 260.238,324.279 261.214 C 323.721 262.190,323.087 263.309,322.869 263.701 C 322.651 264.093,321.416 266.229,320.123 268.447 C 318.831 270.665,317.773 272.525,317.773 272.581 C 317.773 272.638,317.523 273.051,317.218 273.500 C 316.912 273.949,316.283 275.020,315.820 275.879 C 315.357 276.738,314.744 277.793,314.458 278.223 C 314.171 278.652,313.557 279.707,313.093 280.566 C 312.628 281.426,312.187 282.173,312.112 282.227 C 312.037 282.280,311.596 283.027,311.130 283.887 C 310.665 284.746,309.786 286.285,309.177 287.306 C 308.568 288.327,307.691 289.865,307.227 290.724 C 306.763 291.583,306.190 292.549,305.954 292.871 C 305.718 293.193,305.292 293.915,305.009 294.474 C 304.726 295.033,303.999 296.307,303.393 297.306 C 302.787 298.304,301.854 299.912,301.319 300.879 C 300.785 301.846,300.234 302.769,300.096 302.930 C 299.958 303.091,299.338 304.102,298.720 305.176 C 296.132 309.673,291.674 316.505,289.570 319.202 C 288.915 320.041,288.159 321.015,287.891 321.366 C 287.622 321.718,286.875 322.555,286.230 323.227 C 285.586 323.899,285.030 324.527,284.995 324.621 C 284.843 325.035,279.904 329.312,278.364 330.364 C 272.823 334.149,265.673 336.471,256.422 337.489 C 245.475 338.694,155.380 338.763,143.945 337.575 C 138.441 337.003,131.984 335.653,129.590 334.574 C 129.160 334.380,128.393 334.082,127.886 333.912 C 126.748 333.529,122.506 331.257,121.523 330.503 C 121.126 330.198,120.133 329.448,119.316 328.837 C 114.572 325.284,109.281 318.830,103.861 309.984 C 103.030 308.629,102.091 307.124,101.775 306.641 C 101.458 306.157,100.961 305.322,100.669 304.785 C 100.378 304.248,99.857 303.369,99.511 302.832 C 98.810 301.743,96.875 298.439,96.875 298.332 C 96.875 298.294,96.436 297.577,95.898 296.739 C 95.361 295.901,94.922 295.150,94.922 295.071 C 94.922 294.992,94.334 293.937,93.615 292.727 C 92.076 290.137,90.103 286.724,88.334 283.594 C 87.636 282.358,86.209 279.897,85.163 278.125 C 84.116 276.353,82.619 273.804,81.836 272.461 C 81.053 271.118,79.853 269.072,79.171 267.913 C 78.488 266.755,77.930 265.757,77.930 265.695 C 77.930 265.634,77.325 264.560,76.585 263.309 C 75.846 262.059,74.776 260.200,74.207 259.180 C 73.638 258.159,73.068 257.192,72.941 257.031 C 72.813 256.870,72.289 255.950,71.778 254.986 C 71.266 254.023,70.694 253.012,70.508 252.740 C 70.321 252.469,69.662 251.323,69.043 250.195 C 68.424 249.067,67.767 247.925,67.583 247.656 C 67.399 247.388,66.872 246.465,66.413 245.605 C 65.953 244.746,65.361 243.691,65.097 243.262 C 64.479 242.258,60.617 235.384,58.402 231.348 C 44.109 205.295,44.109 194.705,58.402 168.652 C 60.617 164.616,64.479 157.742,65.097 156.738 C 65.361 156.309,65.953 155.254,66.413 154.395 C 66.872 153.535,67.399 152.612,67.583 152.344 C 67.767 152.075,68.424 150.933,69.043 149.805 C 69.662 148.677,70.321 147.531,70.508 147.260 C 70.694 146.988,71.266 145.977,71.778 145.014 C 72.289 144.050,72.813 143.130,72.941 142.969 C 73.068 142.808,73.638 141.841,74.207 140.820 C 74.776 139.800,75.846 137.941,76.585 136.691 C 77.325 135.440,77.930 134.366,77.930 134.305 C 77.930 134.243,78.488 133.245,79.171 132.087 C 80.378 130.038,81.734 127.717,84.597 122.803 C 85.363 121.487,86.234 120.015,86.533 119.531 C 86.831 119.048,87.644 117.642,88.339 116.406 C 90.020 113.420,92.015 109.967,93.615 107.273 C 94.334 106.063,94.922 105.008,94.922 104.929 C 94.922 104.850,95.361 104.099,95.898 103.261 C 96.436 102.423,96.875 101.706,96.875 101.668 C 96.875 101.561,98.811 98.255,99.511 97.168 C 99.857 96.631,100.429 95.664,100.782 95.020 C 101.135 94.375,101.663 93.496,101.954 93.066 C 102.246 92.637,103.123 91.230,103.903 89.941 C 106.506 85.640,109.957 80.758,112.394 77.931 C 121.921 66.875,131.636 62.793,150.098 62.087 C 162.096 61.628,199.703 61.451,226.563 61.727 M157.565 108.216 C 155.607 108.689,153.429 111.227,151.878 114.844 C 151.578 115.542,151.209 116.390,151.057 116.729 C 150.905 117.067,150.781 117.467,150.781 117.617 C 150.781 117.768,150.707 117.974,150.616 118.076 C 150.410 118.306,149.334 121.589,148.914 123.267 C 148.742 123.951,148.471 124.995,148.310 125.586 C 147.880 127.169,147.492 128.784,147.064 130.762 C 146.710 132.397,146.533 133.271,145.774 137.109 C 145.615 137.915,145.313 139.629,145.105 140.918 C 144.896 142.207,144.590 144.097,144.423 145.117 C 143.932 148.136,143.588 150.498,143.171 153.711 C 142.710 157.263,142.331 158.895,141.606 160.449 C 141.506 160.664,141.199 161.390,140.924 162.061 C 137.283 170.959,129.310 175.661,122.086 173.172 C 121.439 172.949,117.844 170.813,117.578 170.494 C 117.026 169.831,114.048 168.479,112.244 168.073 C 109.534 167.463,107.567 167.839,104.919 169.471 C 104.011 170.032,101.052 173.146,100.583 174.036 C 100.445 174.298,100.279 174.556,100.215 174.609 C 100.150 174.663,99.955 174.971,99.781 175.293 C 99.607 175.615,99.202 176.362,98.880 176.953 C 98.559 177.544,98.184 178.379,98.048 178.809 C 97.912 179.238,97.734 179.678,97.652 179.785 C 97.445 180.056,96.163 183.931,96.004 184.766 C 95.933 185.142,95.798 185.669,95.705 185.938 C 95.613 186.206,95.343 187.085,95.106 187.891 C 94.869 188.696,94.610 189.443,94.530 189.551 C 94.449 189.658,94.319 189.966,94.239 190.234 C 93.992 191.066,92.796 193.732,92.574 193.945 C 92.518 193.999,92.361 194.263,92.225 194.531 C 90.928 197.086,87.640 200.586,86.537 200.586 C 86.422 200.586,86.328 200.674,86.328 200.781 C 86.328 200.889,86.243 200.977,86.139 200.977 C 86.034 200.977,85.469 201.196,84.882 201.465 C 84.294 201.733,83.694 201.953,83.548 201.953 C 83.401 201.953,83.198 202.036,83.096 202.138 C 82.994 202.240,82.097 202.427,81.104 202.554 C 78.909 202.835,78.813 203.027,80.780 203.206 C 81.596 203.279,82.409 203.416,82.587 203.508 C 82.765 203.601,83.350 203.826,83.887 204.009 C 87.666 205.298,90.604 208.078,92.862 212.500 C 93.274 213.306,93.674 214.053,93.752 214.160 C 93.830 214.268,94.000 214.707,94.129 215.137 C 94.258 215.566,94.436 216.094,94.524 216.309 C 94.904 217.229,95.759 219.980,95.981 220.996 C 96.228 222.125,96.924 224.318,97.094 224.502 C 97.188 224.604,97.266 224.824,97.267 224.990 C 97.267 225.157,97.389 225.525,97.537 225.808 C 97.685 226.091,97.948 226.751,98.122 227.273 C 98.296 227.795,98.745 228.732,99.121 229.355 C 99.497 229.979,99.805 230.533,99.805 230.587 C 99.805 230.742,101.383 233.027,101.940 233.677 C 105.265 237.565,109.048 238.799,113.478 237.440 C 114.840 237.022,117.701 235.508,118.164 234.959 C 118.284 234.817,120.129 233.688,121.191 233.107 C 123.194 232.011,127.458 231.745,129.844 232.569 C 131.352 233.089,133.594 234.177,133.594 234.389 C 133.594 234.474,133.776 234.602,134.000 234.673 C 135.894 235.274,140.125 241.213,141.580 245.313 C 141.828 246.011,142.102 246.758,142.190 246.973 C 142.516 247.768,142.825 249.391,143.178 252.148 C 144.001 258.587,145.457 267.512,146.381 271.777 C 146.543 272.529,146.815 273.888,146.985 274.797 C 147.154 275.705,147.330 276.509,147.376 276.582 C 147.421 276.656,147.584 277.275,147.739 277.958 C 147.893 278.641,148.161 279.727,148.335 280.371 C 148.508 281.016,148.737 281.895,148.843 282.324 C 151.104 291.503,155.112 297.852,158.644 297.852 C 161.149 297.852,165.088 293.056,166.505 288.281 C 166.584 288.013,166.717 287.705,166.799 287.598 C 166.969 287.377,168.638 282.448,169.048 280.957 C 169.196 280.420,169.460 279.497,169.633 278.906 C 170.429 276.202,172.088 269.139,172.845 265.234 C 173.042 264.214,173.352 262.632,173.533 261.719 C 174.131 258.703,174.324 257.605,175.504 250.488 C 175.664 249.521,175.919 247.939,176.070 246.973 C 176.718 242.816,177.176 240.927,177.891 239.454 C 178.237 238.742,179.504 236.693,179.704 236.523 C 179.767 236.470,179.909 236.260,180.020 236.056 C 180.131 235.853,180.890 235.012,181.707 234.187 C 185.777 230.075,191.241 229.987,195.117 233.972 C 201.385 240.417,209.310 239.461,214.363 231.650 C 215.113 230.490,217.188 226.393,217.188 226.071 C 217.188 225.845,218.220 223.342,218.354 223.242 C 218.426 223.188,218.542 222.991,218.612 222.803 C 218.801 222.289,219.625 222.375,220.001 222.948 C 220.177 223.216,220.678 224.513,221.115 225.829 C 225.381 238.681,233.635 244.549,240.185 239.387 C 243.076 237.109,245.953 232.912,247.370 228.906 C 247.655 228.101,247.962 227.266,248.051 227.051 C 248.141 226.836,248.365 226.177,248.548 225.586 C 249.407 222.825,251.143 220.439,252.213 220.547 C 253.413 220.668,253.755 222.038,254.203 228.516 C 254.370 230.933,254.627 234.053,254.774 235.449 C 255.167 239.192,255.654 243.193,255.783 243.750 C 255.846 244.019,256.014 245.029,256.158 245.996 C 256.481 248.170,256.881 250.239,257.892 254.980 C 258.209 256.466,258.773 258.653,259.278 260.352 C 259.453 260.942,259.721 261.865,259.873 262.402 C 260.024 262.939,260.333 263.862,260.558 264.453 C 260.784 265.044,261.059 265.835,261.169 266.211 C 261.279 266.587,261.436 266.982,261.518 267.090 C 261.601 267.197,261.779 267.629,261.914 268.048 C 262.126 268.707,263.413 271.319,264.281 272.852 C 267.338 278.253,271.422 280.532,275.146 278.913 C 275.710 278.668,276.172 278.396,276.172 278.309 C 276.172 278.222,276.326 278.101,276.514 278.039 C 276.973 277.889,278.288 276.646,279.007 275.684 C 279.327 275.254,279.678 274.796,279.785 274.665 C 280.404 273.912,280.644 273.511,281.874 271.164 C 282.769 269.455,284.375 265.734,284.375 265.370 C 284.375 265.274,284.501 264.919,284.655 264.580 C 285.016 263.787,285.938 260.809,285.937 260.436 C 285.937 260.279,286.020 259.998,286.121 259.812 C 286.456 259.192,287.510 254.769,288.388 250.293 C 289.448 244.891,290.295 238.730,290.912 231.934 C 291.450 226.003,292.232 222.433,294.013 217.773 C 294.539 216.396,296.164 213.231,296.895 212.158 C 297.206 211.702,297.717 210.955,298.029 210.498 C 298.550 209.738,300.930 207.341,302.187 206.312 C 304.283 204.595,307.825 203.532,312.549 203.201 C 314.912 203.035,314.989 202.811,312.744 202.637 C 307.751 202.249,303.636 201.055,302.344 199.618 C 302.290 199.558,301.938 199.277,301.563 198.993 C 295.714 194.570,291.816 185.155,290.820 173.047 C 290.499 169.144,289.633 162.359,288.987 158.691 C 288.389 155.296,287.262 149.985,286.728 148.047 C 285.416 143.284,284.465 140.363,283.567 138.341 C 283.367 137.890,283.203 137.468,283.203 137.404 C 283.203 137.230,281.335 133.488,280.831 132.651 C 280.339 131.835,278.069 128.911,277.691 128.608 C 276.246 127.447,275.729 127.118,274.805 126.771 C 272.437 125.881,269.983 126.484,267.719 128.511 C 266.830 129.308,265.039 131.504,265.039 131.799 C 265.039 131.909,264.965 132.028,264.874 132.064 C 264.676 132.142,262.777 135.563,262.586 136.185 C 262.512 136.425,262.387 136.709,262.306 136.816 C 262.226 136.924,262.049 137.363,261.914 137.793 C 261.779 138.223,261.606 138.662,261.530 138.770 C 261.454 138.877,261.193 139.536,260.950 140.234 C 260.707 140.933,260.433 141.680,260.341 141.895 C 260.248 142.109,260.077 142.681,259.961 143.164 C 259.845 143.647,259.673 144.219,259.579 144.434 C 259.485 144.648,259.306 145.220,259.182 145.703 C 259.057 146.187,258.822 147.065,258.659 147.656 C 258.000 150.047,256.760 156.049,256.137 159.863 C 255.744 162.264,255.123 167.047,254.882 169.531 C 254.772 170.659,254.595 172.285,254.489 173.145 C 254.383 174.004,254.203 176.289,254.089 178.223 C 253.839 182.463,253.524 184.172,252.863 184.886 C 251.695 186.145,249.819 184.116,248.535 180.202 C 247.537 177.159,245.931 173.258,245.511 172.852 C 245.455 172.798,245.278 172.490,245.117 172.168 C 244.956 171.846,244.759 171.494,244.678 171.387 C 244.598 171.279,244.146 170.664,243.673 170.019 C 239.898 164.872,233.781 163.107,230.134 166.113 C 230.004 166.221,229.432 166.651,228.865 167.068 C 228.297 167.486,227.349 168.430,226.758 169.166 C 226.167 169.902,225.590 170.615,225.475 170.750 C 225.163 171.119,223.242 174.404,223.242 174.569 C 223.242 174.648,223.079 175.019,222.880 175.394 C 222.680 175.768,222.190 176.997,221.791 178.125 C 221.392 179.253,220.984 180.328,220.884 180.515 C 220.785 180.701,220.703 180.996,220.703 181.169 C 220.703 182.316,219.488 183.792,218.947 183.302 C 218.548 182.941,217.383 180.711,217.383 180.308 C 217.383 179.825,214.835 174.560,214.436 174.219 C 214.374 174.165,214.242 173.979,214.143 173.806 C 212.112 170.219,207.941 167.578,204.307 167.578 C 201.828 167.578,198.475 168.907,196.532 170.661 C 192.997 173.851,191.702 174.558,189.044 174.749 C 185.506 175.004,181.382 172.480,179.297 168.781 C 179.136 168.496,178.951 168.218,178.886 168.164 C 178.821 168.110,178.497 167.539,178.165 166.895 C 177.201 165.020,176.776 163.391,176.074 158.887 C 175.924 157.920,175.661 156.294,175.490 155.273 C 175.319 154.253,175.008 152.363,174.799 151.074 C 174.412 148.690,174.049 146.694,173.557 144.238 C 173.406 143.486,173.100 141.948,172.877 140.820 C 172.502 138.926,172.261 137.785,171.579 134.668 C 171.029 132.157,169.752 127.209,169.335 125.977 C 169.244 125.708,168.980 124.829,168.748 124.023 C 168.239 122.256,167.629 120.358,167.398 119.824 C 167.305 119.609,167.078 118.994,166.893 118.457 C 166.188 116.403,164.271 112.530,163.382 111.361 C 161.462 108.836,159.466 107.757,157.565 108.216 " stroke="none" fill="#FFFFFF" fill-rule="evenodd"></path></g></svg>